<?xml version="1.0" encoding="iso-8859-1"?>
<!-- Generator: Adobe Illustrator 18.0.0, SVG Export Plug-In . SVG Version: 6.00 Build 0)  -->
<!DOCTYPE svg PUBLIC "-//W3C//DTD SVG 1.1//EN" "http://www.w3.org/Graphics/SVG/1.1/DTD/svg11.dtd">
<svg xmlns="http://www.w3.org/2000/svg" xmlns:xlink="http://www.w3.org/1999/xlink" version="1.1" id="Capa_1" x="0px" y="0px" viewBox="0 0 557.241 557.241" style="enable-background:new 0 0 557.241 557.241;" xml:space="preserve" width="18px" height="18px">
<g>
	<path d="M501.465,101.112c0-35.654-52.99-39.712-52.99-39.712l-124.421-7.991c0,0-2.582-34.425-27.786-46.351   c-14.139-6.762-58.03-7.5-99.217-6.885c-9.467,0.123-17.089,7.869-17.089,17.335c0,20.778,0,55.94,0,79.177   c0,12.909-10.45,23.36-23.36,23.36h-75.12c-19.671,0-35.04,7.623-35.04,23.851s23.114,190.32,55.08,222.163   c18.442,18.442,131.429,32.704,155.281,32.704s15.86-70.817,22.499-70.817c6.639,0,13.893,40.695,51.391,50.162   s87.537,7.869,90.119,35.04c3.442,35.777,6.639,82.128-16.598,85.324l-52.375,2.213c-15.491,0-13.647-42.539-10.45-42.539   c5.287,0,9.713-0.123,13.278-0.123c5.901-0.123,10.696-4.918,10.942-10.819l0.984-22.13c0.246-6.393-4.795-11.803-11.188-11.803   c-22.868-0.369-71.432,4.18-74.013,47.211c-3.197,51.637,5.533,75.858,11.926,81.144c6.393,5.287,17.458,15.614,118.151,15.614   C553.594,557.241,501.465,136.766,501.465,101.112z M432.492,272.621c-3.565,3.32-18.934-9.713-31.105-9.713   s-22.622,9.959-25.819,6.147c-3.074-3.688,2.828-33.933,25.819-33.933S436.058,269.302,432.492,272.621z" fill="#d4d4d4"/>
	<path d="M136.684,14.558L74.474,78.49c-4.918,5.041-1.352,13.401,5.656,13.401h62.211c4.426,0,7.869-3.565,7.869-7.869V20.091   C150.331,12.96,141.725,9.394,136.684,14.558z" fill="#d4d4d4"/>
</g>
<g>
</g>
<g>
</g>
<g>
</g>
<g>
</g>
<g>
</g>
<g>
</g>
<g>
</g>
<g>
</g>
<g>
</g>
<g>
</g>
<g>
</g>
<g>
</g>
<g>
</g>
<g>
</g>
<g>
</g>
</svg>
